<svg xmlns="http://www.w3.org/2000/svg" xmlns:xlink="http://www.w3.org/1999/xlink" id="Ebene_1" x="0px" y="0px" viewBox="0 0 822 311.8" style="enable-background:new 0 0 822 311.8;" xml:space="preserve"><style type="text/css">	.st0{fill:#5D5D61;}	.st1{fill:#37B8BD;}	.st2{fill:none;stroke:#5D5D61;stroke-width:1.815;stroke-linecap:round;stroke-linejoin:round;}</style><g>	<g>		<path class="st0" d="M326.3,86.8h20.6c18.2,0,41.8,2.3,41.8,30.4v6.5c0,14.3-8.9,24.2-17.9,26.4v0.6c13.3,2.4,20.1,13.1,20.1,29   v6.8c0,29.2-20.3,34.3-43.2,34.3h-21.3V86.8z M350.2,144.1c10.9,0,18.2-4.9,18.2-17.5v-5.5c0-12.5-4.8-19.5-18.2-19.5h-3.9v42.5   H350.2z M352.1,206.7c10.8,0,18.1-5.7,18.1-18.2v-10.4c0-12.6-4.8-19.5-18.1-19.5h-5.8v48.2H352.1z"></path>		<path class="st0" d="M522.1,177.2v-47.5c0-40.4,21.6-44.1,34.4-44.1c21.7,0,29.4,12.9,29.4,28.4c0,5.7-0.8,10.2-1.9,16h-16.2v-6.4   c0-14.7-4.1-22.1-11.9-22.1c-8.6,0-12.6,5.3-12.6,22.5v60.8c0,16.6,3.8,21.7,12.4,21.7c9,0,12.9-10,12.9-22.8v-17.5h-10.4v-13.3   h30.2v67.9H575l-2.2-12.7c-5.1,10-11.5,14-20.6,14C542.6,222.1,522.1,217.5,522.1,177.2z"></path>	</g>	<g>		<path class="st0" d="M626.5,86.8h20.3v56.1H671V86.8h20.3v134.1H671v-61.9h-24.1v61.9h-20.3V86.8z"></path>		<path class="st0" d="M748.6,102.8h-21.6v-16h63.4v16H769v118.1h-20.3V102.8z"></path>	</g>	<polygon class="st0" points="495,86.3 474.6,86.3 458.4,150.4 458.2,150.4 458.2,220.3 467.9,220.3 467.9,175.7 495,86.3  "></polygon>	<polygon class="st1" points="418.3,86.3 438.7,86.3 455,150.4 455.1,150.4 455.1,220.3 445.5,220.3 445.5,175.7 418.3,86.3  "></polygon>	<line class="st2" x1="257.4" y1="11" x2="257.4" y2="301.4"></line>	<path class="st1" d="M199.9,172.3c0-46.8-35.8-84.8-79.9-84.8c-10.5,0-20.6,2.2-29.8,6.2v46.8c7.6-8.2,18.1-13.3,29.8-13.3  c23.3,0,42.1,20.2,42.1,45.1c0,21.3-13.8,39-32.3,43.8l20.1,34.8C179.2,238.3,199.9,207.9,199.9,172.3L199.9,172.3z"></path>	<path class="st0" d="M133.3,258.1l-22.1-38.3c-19-1.3-34.7-15.8-39.2-35v-72h-0.1v-11.6V99V83.3V42.6c0,0,0-18.3-17.1-18.3H32v59  v90.4v0.3c0,0,0,0.2,0,0.5c0,0.2,0,0.5,0,0.7c0,0.7,0,1.4,0.1,2c0-0.2,0-0.5,0-0.7c0.8,25.8,12.2,48.8,29.7,64.1  c2.3,2,4.7,3.9,7.2,5.7c12.9,9,28.3,14.3,44.9,14.3C120.6,260.7,127.1,259.8,133.3,258.1L133.3,258.1z"></path></g></svg>